# AST/ASF file generated using VICON BodyLanguage
# -----------------------------------------------
:version 1.10
:name VICON
:units
  mass 1.0
  length 0.45
  angle deg
:documentation
   .ast/.asf automatically generated from VICON data using
   VICON BodyBuilder and BodyLanguage model FoxedUp or BRILLIANT.MOD
:root
   order TX TY TZ RX RY RZ
   axis XYZ
   position 0 0 0  
   orientation 0 0 0 
:bonedata
  begin
     id 1 
     name lhipjoint
     direction 0.635376 -0.686425 0.353719 
     length 2.47244 
     axis 0 0 0  XYZ
  end
  begin
     id 2 
     name lfemur
     direction 0.34202 -0.939693 0  
     length 7.25268  
     axis 0 0 20  XYZ
    dof rx ry rz
    limits (-160.0 20.0)
           (-70.0 70.0)
           (-60.0 70.0)
  end
  begin
     id 3 
     name ltibia
     direction 0.34202 -0.939693 0   
     length 7.6767   
     axis 0 0 20   XYZ
    dof rx
    limits (-10.0 170.0)
  end
  begin
     id 4 
     name lfoot
     direction 0.0803374 -0.220725 0.972022   
     length 2.22945   
     axis -90 7.62852e-016 20   XYZ
    dof rx rz
    limits (-45.0 90.0)
           (-70.0 20.0)
  end
  begin
     id 5 
     name ltoes
     direction 1.53579e-011 -4.21994e-011 1   
     length 1.11848   
     axis -90 7.62852e-016 20   XYZ
    dof rx
    limits (-90.0 20.0)
  end
  begin
     id 6 
     name rhipjoint
     direction -0.664428 -0.664335 0.342336   
     length 2.55466  
     axis 0 0 0  XYZ 
  end
  begin
     id 7 
     name rfemur
     direction -0.34202 -0.939693 0   
     length 6.83172   
     axis 0 0 -20   XYZ
    dof rx ry rz
    limits (-160.0 20.0)
           (-70.0 70.0)
           (-70.0 60.0)
  end
  begin
     id 8 
     name rtibia
     direction -0.34202 -0.939693 0   
     length 7.62692   
     axis 0 0 -20   XYZ
    dof rx
    limits (-10.0 170.0)
 end
 begin
     id 9 
     name rfoot
     direction -0.0949276 -0.260811 0.960711   
     length 2.19684  
     axis -90 -7.62852e-016 -20   XYZ
    dof rx rz
    limits (-45.0 90.0)
           (-20.0 70.0)
  end
  begin
     id 10 
     name rtoes
     direction -1.53543e-011 -4.2183e-011 1   
     length 1.09848   
     axis -90 -7.62852e-016 -20   XYZ
    dof rx
    limits (-90.0 20.0)
  end
  begin
     id 11 
     name lowerback
     direction 0.0118782 0.999815 -0.0151555   
     length 2.15772   
     axis 0 0 0   XYZ
    dof rx ry rz
    limits (-20.0 45.0)
           (-30.0 30.0)
           (-30.0 30.0)
  end
  begin
     id 12 
     name upperback
     direction 0.00130825 0.999065 0.0432113   
     length 2.14863   
     axis 0 0 0   XYZ
    dof rx ry rz
    limits (-20.0 45.0)
           (-30.0 30.0)
           (-30.0 30.0)
  end
  begin
     id 13 
     name thorax
     direction -0.00347005 0.998773 0.0494011   
     length 2.14936   
     axis 0 0 0   XYZ
    dof rx ry rz
    limits (-20.0 45.0)
           (-30.0 30.0)
           (-30.0 30.0)
  end
  begin
     id 14 
     name lowerneck
     direction -0.0262159 0.99424 0.103921   
     length 1.69373   
     axis 0 0 0   XYZ
    dof rx ry rz
    limits (-20.0 45.0)
           (-30.0 30.0)
           (-30.0 30.0)
  end
  begin
     id 15 
     name upperneck
     direction 0.0353511 0.977394 -0.20845   
     length 1.70857   
     axis 0 0 0   XYZ
    dof rx ry rz
    limits (-20.0 45.0)
           (-30.0 30.0)
           (-30.0 30.0)
  end
  begin
     id 16
     name head
     direction 0.0139214 0.996594 -0.0812836  
     length 1.72777  
     axis 0 0 0   XYZ
    dof rx ry rz
    limits (-20.0 45.0)
           (-30.0 30.0)
           (-30.0 30.0)
  end
  begin
     id 17 
     name lclavicle
     direction 0.841247 0.537205 -0.0609508  
     length 3.55371  
     axis 0 0 0   XYZ
    dof ry rz
    limits (-20.0 10.0)
           (0.0 20.0)
  end
  begin
     id 18 
     name lhumerus
     direction 1 -4.48964e-011 1.60116e-018   
     length 4.91377   
     axis -180 -30 -90   XYZ
    dof rx ry rz
    limits (-60.0 90.0)
           (-90.0 90.0)
           (-90.0 90.0)
  end
  begin
     id 19
     name lradius
     direction 1 -4.48989e-011 -8.93847e-027   
     length 3.00291   
     axis -180 -30 -90   XYZ
    dof rx
    limits (-10.0 170.0)
  end
  begin
     id 20
     name lwrist
     direction 1 -4.48932e-011 -7.31504e-027   
     length 1.50145   
     axis 5.74121e-015 90 90   XYZ
    dof ry
    limits (-180.0 0.0)
 end
  begin
     id 21 
     name lhand
     direction 1 -4.48971e-011 -1.46301e-026   
     length 0.450922   
     axis 9.33524e-015 90 90   XYZ
    dof rx rz
    limits (-90.0 90.0)
           (-45.0 45.0)
  end
  begin
     id 22 
     name lfingers
     direction 1 -4.49039e-011 -2.92602e-026   
     length 0.363545   
     axis 1.86705e-014 90 90   XYZ
    dof rx
    limits (0.0 90.0)
  end
  begin
     id 23
     name lthumb
     direction 0.707107 -6.34941e-011 0.707107   
     length 0.52198   
     axis -90 45 2.85299e-015   XYZ
    dof rx rz
    limits (-45.0 45.0)
           (-45.0 45.0)
  end
  begin
     id 24 
     name rclavicle
     direction -0.825079 0.56158 -0.0622297   
     length 3.39909  
     axis 0 0 0   XYZ 
    dof ry rz
    limits (-10.0 20.0)
           (-20.0 0.0)
  end
  begin
     id 25 
     name rhumerus
     direction -1 -4.48965e-011 1.61691e-027  
     length 4.86725   
     axis -180 30 90   XYZ
    dof rx ry rz
    limits (-90.0 60.0)
           (-90.0 90.0)
           (-90.0 90.0)
  end
  begin
     id 26 
     name rradius
     direction -1 -4.48964e-011 -2.25776e-027   
     length 3.17144   
     axis -180 30 90   XYZ
    dof rx
    limits (-10.0 170.0)
  end
  begin
     id 27 
     name rwrist
     direction -1 -4.48961e-011 -7.31504e-027   
     length 1.58572   
     axis 5.74121e-015 -90 -90   XYZ
    dof ry
    limits (-180.0 0.0)
  end
  begin
     id 28
     name rhand
     direction -1 -4.49013e-011 -1.46301e-026   
     length 0.419368   
     axis 9.33524e-015 -90 -90   XYZ
    dof rx rz
    limits (-90.0 90.0)
           (-45.0 45.0)
  end
  begin
     id 29
     name rfingers
     direction -1 -4.489e-011 -2.92602e-026   
     length 0.338105   
     axis 1.86705e-014 -90 -90   XYZ
    dof rx
    limits (0.0 90.0)
  end
  begin
     id 30
     name rthumb
     direction -0.707107 -6.35022e-011 0.707107   
     length 0.485453   
     axis -90 -45 -2.85299e-015   XYZ
    dof rx rz
    limits (-45.0 45.0)
           (-45.0 45.0)
  end
:hierarchy
  begin
    root lhipjoint rhipjoint lowerback
    lhipjoint lfemur
    lfemur ltibia
    ltibia lfoot
    lfoot ltoes
    rhipjoint rfemur
    rfemur rtibia
    rtibia rfoot
    rfoot rtoes
    lowerback upperback
    upperback thorax
    thorax lowerneck lclavicle rclavicle
    lowerneck upperneck
    upperneck head
    lclavicle lhumerus
    lhumerus lradius
    lradius lwrist
    lwrist lhand lthumb
    lhand lfingers
    rclavicle rhumerus
    rhumerus rradius
    rradius rwrist
    rwrist rhand rthumb
    rhand rfingers
  end

#!OML:ASF H:\Swim 2\Project 1\Capture day 1\Session 1\male.ASF
:FULLY-SPECIFIED
:DEGREES
708
root 2.748 15.182 8.74138 107.236 -36.737 -1.8815
lowerback -26.0049 3.73937 13.1781
upperback -0.175775 2.45533 -10.7892
thorax 15.3659 2.71156 -19.2239
lowerneck -19.2508 2.15377 -2.98621
upperneck 37.9739 -0.338547 10.4229
head 17.1213 0.719585 5.15702
rclavicle -1.19271e-015 -9.69821e-014
rhumerus 102.55 -27.7575 -53.6563
rradius 26.5602
rwrist -17.2845
rhand 20.1557 -12.4214
rfingers 7.12502
rthumb 44.6801 -36.0459
lclavicle -1.19271e-015 -9.69821e-014
lhumerus 462.446 25.5504 -340.609
lradius 27.2716
lwrist 21.8965
lhand -4.07648 -3.86212
lfingers 7.12502
lthumb 21.6805 24.9439
rfemur -59.8002 0.389117 32.0268
rtibia 79.2519
rfoot 10.6153 -9.83728
rtoes 10.026
lfemur -59.7431 10.2756 -23.6613
ltibia 78.0883
lfoot 26.2917 -9.62214
ltoes 17.7578
709
root 2.69595 15.1981 8.74032 106.698 -36.7452 -2.00907
lowerback -25.4611 3.57351 13.2193
upperback 0.477438 2.28299 -10.6849
thorax 15.7914 2.74166 -19.2575
lowerneck -19.088 2.20435 -3.04691
upperneck 37.5595 -0.117688 10.2056
head 16.8271 0.778133 5.06329
rclavicle 5.56597e-015 8.78877e-014
rhumerus 103.113 -26.9234 -54.7242
rradius 26.342
rwrist -17.8682
rhand 18.479 -12.2817
rfingers 7.12502
rthumb 43.1156 -36.4867
lclavicle 5.56597e-015 8.78877e-014
lhumerus 461.811 25.3356 -340.612
lradius 27.3554
lwrist 21.302
lhand -7.60829 -4.73316
lfingers 7.12502
lthumb 18.2857 24.4274
rfemur -60.2244 0.626977 31.9413
rtibia 79.3053
rfoot 10.593 -10.1342
rtoes 10.3143
lfemur -60.1459 10.4708 -23.8833
ltibia 77.9935
lfoot 26.5695 -9.88974
ltoes 17.707
710
root 2.64537 15.214 8.7409 106.174 -36.7402 -2.1636
lowerback -24.9254 3.42415 13.2661
upperback 1.15286 2.1267 -10.569
thorax 16.2544 2.78563 -19.2755
lowerneck -18.8893 2.24335 -3.10242
upperneck 37.012 0.103323 9.96134
head 16.461 0.836778 4.94623
rclavicle 3.27995e-014 3.97569e-015
rhumerus 103.258 -26.3651 -55.1682
rradius 26.463
rwrist -19.0533
rhand 16.7607 -12.2138
rfingers 7.12502
rthumb 41.5063 -36.9671
lclavicle 3.27995e-014 3.97569e-015
lhumerus 461.075 25.2428 -340.681
lradius 27.5544
lwrist 20.9175
lhand -10.9231 -5.89863
lfingers 7.12502
lthumb 15.0946 23.531
rfemur -60.5657 0.910107 31.8474
rtibia 79.0797
rfoot 10.5723 -10.3886
rtoes 10.6094
lfemur -60.4882 10.5785 -24.0531
ltibia 77.6553
lfoot 26.8313 -10.0764
ltoes 17.6683
711
root 2.5963 15.2283 8.74283 105.709 -36.7097 -2.35276
lowerback -24.4228 3.30322 13.3351
upperback 1.82779 1.99446 -10.4436
thorax 16.7462 2.84576 -19.2861
lowerneck -18.6784 2.27283 -3.16106
upperneck 36.3689 0.312844 9.72394
head 16.0544 0.893142 4.82634
rclavicle -7.55382e-015 -2.13495e-013
rhumerus 103.072 -26.0338 -55.1267
rradius 26.8273
rwrist -20.3436
rhand 14.961 -11.8446
rfingers 7.12502
rthumb 39.8149 -37.1262
lclavicle -7.55382e-015 -2.13495e-013
lhumerus 460.294 25.2453 -340.785
lradius 27.8372
lwrist 20.7898
lhand -13.9269 -7.24786
lfingers 7.12502
lthumb 12.1996 22.3764
rfemur -60.8544 1.24401 31.7618
rtibia 78.5637
rfoot 10.5531 -10.6185
rtoes 10.8585
lfemur -60.808 10.6005 -24.1613
ltibia 77.0712
lfoot 27.0592 -10.2392
ltoes 17.6129
712
root 2.54822 15.2398 8.747 105.289 -36.6607 -2.55554
lowerback -23.9464 3.20438 13.4264
upperback 2.48988 1.87877 -10.3151
thorax 17.2472 2.91605 -19.2998
lowerneck -18.4531 2.30001 -3.20545
upperneck 35.6447 0.513218 9.49251
head 15.6169 0.949711 4.70239
rclavicle 4.85035e-014 7.66812e-014
rhumerus 102.594 -25.8899 -54.6572
rradius 27.3923
rwrist -21.5508
rhand 13.0877 -11.1529
rfingers 7.12502
rthumb 38.0487 -36.9388
lclavicle 4.85035e-014 7.66812e-014
lhumerus 459.514 25.2932 -340.903
lradius 28.1548
lwrist 20.8633
lhand -16.4748 -8.68968
lfingers 7.12502
lthumb 9.7421 21.065
rfemur -61.0736 1.60505 31.6823
rtibia 77.751
rfoot 10.5283 -10.8312
rtoes 11.0927
lfemur -61.0865 10.5211 -24.2054
ltibia 76.2309
lfoot 27.2234 -10.3544
ltoes 17.4894
713
root 2.50073 15.2479 8.75326 104.935 -36.6058 -2.7742
lowerback -23.5107 3.12709 13.5298
upperback 3.12357 1.78148 -10.192
thorax 17.7482 2.99471 -19.3193
lowerneck -18.2253 2.32726 -3.22945
upperneck 34.8712 0.702372 9.2691
head 15.1696 1.00594 4.57723
rclavicle 3.10104e-014 2.47487e-014
rhumerus 101.86 -25.885 -53.8323
rradius 28.1265
rwrist -22.6463
rhand 11.1105 -10.3608
rfingers 7.12502
rthumb 36.1789 -36.6332
lclavicle 3.10104e-014 2.47487e-014
lhumerus 458.751 25.3632 -341.047
lradius 28.4648
lwrist 21.0529
lhand -18.5718 -10.0886
lfingers 7.12502
lthumb 7.71846 19.7506
rfemur -61.2447 1.98084 31.604
rtibia 76.6444
rfoot 10.5039 -11.0279
rtoes 11.2412
lfemur -61.3399 10.3441 -24.2007
ltibia 75.1312
lfoot 27.301 -10.5118
ltoes 17.1047
714
root 2.45336 15.2522 8.76144 104.659 -36.5499 -3.00728
lowerback -23.1254 3.06727 13.6388
upperback 3.72137 1.69801 -10.0747
thorax 18.2436 3.07764 -19.3424
lowerneck -18.0169 2.35558 -3.25649
upperneck 34.0797 0.879865 9.07694
head 14.7322 1.06116 4.4678
rclavicle 1.86858e-014 2.7482e-014
rhumerus 100.899 -25.9788 -52.6879
rradius 29.0082
rwrist -23.7442
rhand 9.00433 -9.513
rfingers 7.12502
rthumb 34.1814 -36.2563
lclavicle 1.86858e-014 2.7482e-014
lhumerus 457.981 25.4507 -341.262
lradius 28.7317
lwrist 21.2526
lhand -20.3547 -11.3196
lfingers 7.12502
lthumb 5.99741 18.5756
rfemur -61.3737 2.36869 31.5232
rtibia 75.2482
rfoot 10.4811 -11.215
rtoes 11.2891
lfemur -61.5761 10.0788 -24.15
ltibia 73.7762
lfoot 27.3122 -10.6788
ltoes 16.598
715
root 2.40569 15.2525 8.77107 104.464 -36.5109 -3.25774
lowerback -22.7993 3.01963 13.7336
upperback 4.28128 1.62727 -9.96826
thorax 18.7356 3.16254 -19.3634
lowerneck -17.8364 2.38385 -3.29879
upperneck 33.289 1.04704 8.91832
head 14.314 1.11463 4.37819
rclavicle -1.92821e-014 -3.5334e-014
rhumerus 99.7468 -26.1354 -51.261
rradius 30.0138
rwrist -24.9709
rhand 6.76055 -8.64509
rfingers 7.12502
rthumb 32.0477 -35.8415
lclavicle -1.92821e-014 -3.5334e-014
lhumerus 457.186 25.5528 -341.58
lradius 28.9333
lwrist 21.3661
lhand -22.0086 -12.2999
lfingers 7.12502
lthumb 4.40045 17.6344
rfemur -61.457 2.76319 31.4182
rtibia 73.571
rfoot 10.4274 -11.3863
rtoes 11.3232
lfemur -61.7953 9.74017 -24.0715
ltibia 72.1775
lfoot 27.2697 -10.824
ltoes 16.0494
716
root 2.35742 15.2493 8.78164 104.351 -36.5021 -3.53356
lowerback -22.531 2.97718 13.7922
upperback 4.80191 1.56671 -9.87304
thorax 19.2198 3.24462 -19.3697
lowerneck -17.6828 2.40895 -3.39079
upperneck 32.5062 1.2027 8.81787
head 13.9156 1.16488 4.32381
rclavicle 5.50634e-014 1.14947e-013
rhumerus 98.4699 -26.3136 -49.6143
rradius 31.0874
rwrist -26.3467
rhand 4.40932 -7.72837
rfingers 7.12502
rthumb 29.8064 -35.3505
lclavicle 5.50634e-014 1.14947e-013
lhumerus 456.393 25.636 -341.935
lradius 29.0338
lwrist 21.2492
lhand -23.597 -13.062
lfingers 7.12502
lthumb 2.86652 16.8984
rfemur -61.491 3.16373 31.2748
rtibia 71.6253
rfoot 10.3392 -11.521
rtoes 11.3386
lfemur -61.9974 9.34654 -23.979
ltibia 70.3547
lfoot 27.1802 -10.9075
ltoes 15.5056
717
root 2.30817 15.243 8.79345 104.289 -36.5326 -3.82566
lowerback -22.2998 2.93117 13.8032
upperback 5.29263 1.51052 -9.78915
thorax 19.6929 3.31989 -19.357
lowerneck -17.5527 2.42441 -3.55134
upperneck 31.7247 1.34026 8.79036
head 13.5319 1.20926 4.3111
rclavicle 9.54166e-015 -4.96962e-015
rhumerus 97.1483 -26.466 -47.8653
rradius 32.1642
rwrist -27.7629
rhand 1.9966 -6.77901
rfingers 7.12502
rthumb 27.5013 -34.7907
lclavicle 9.54166e-015 -4.96962e-015
lhumerus 455.632 25.6923 -342.279
lradius 29.0262
lwrist 20.8578
lhand -25.1996 -13.6639
lfingers 7.12502
lthumb 1.3188 16.3118
rfemur -61.4512 3.55002 31.0874
rtibia 69.4255
rfoot 10.2149 -11.593
rtoes 11.3569
lfemur -62.1575 8.904 -23.8759
ltibia 68.3317
lfoot 27.0423 -10.8755
ltoes 15.0747
